<?xml version="1.0" encoding="iso-8859-1"?>
<!-- Generator: Adobe Illustrator 19.0.0, SVG Export Plug-In . SVG Version: 6.00 Build 0)  -->
<svg version="1.1" id="Layer_1" xmlns="http://www.w3.org/2000/svg" xmlns:xlink="http://www.w3.org/1999/xlink" x="0px" y="0px"
	 viewBox="0 0 512.001 512.001" style="enable-background:new 0 0 512.001 512.001;" xml:space="preserve">
<circle style="fill:#FFDB79;" cx="255.999" cy="256" r="255.999"/>
<path style="fill:#FFE6A8;" d="M385.749,189.542v171.502h-85.058c-4.393,0-8.754,1.652-12.09,4.988
	c-3.336,3.34-5.024,7.733-5.024,12.09v8.555h-13.081v-196.97h-60.743l34.75-48.524l44.065,15.096
	c-5.024,14.666,2.808,30.588,17.474,35.642c14.663,5.021,30.621-2.808,35.642-17.474L385.749,189.542z"/>
<rect x="136.539" y="189.691" style="fill:#FFFFFF;" width="28.312" height="196.999"/>
<rect x="136.539" y="210.511" style="fill:#474F59;" width="28.312" height="155.349"/>
<polygon style="fill:#7A8693;" points="164.863,252.368 164.863,285.169 141.377,285.169 "/>
<rect x="164.849" y="210.511" style="fill:#353F49;" width="105.639" height="155.349"/>
<path style="fill:#6D7A89;" d="M270.499,210.517v148.809h-24.972c2.18,0,4.36-0.826,6.012-2.477c1.685-1.688,2.51-3.832,2.51-6.012
	v-21.999c0-2.18-0.826-4.327-2.51-6.009c-1.652-1.652-3.832-2.477-6.012-2.477h-9.447v-35.183h-71.218v-32.801l29.993-41.852
	H270.499L270.499,210.517z"/>
<rect x="164.849" y="189.691" style="fill:#D9D8D7;" width="105.639" height="20.824"/>
<polygon style="fill:#E4E4E5;" points="270.499,189.707 270.499,210.517 194.856,210.517 209.754,189.707 "/>
<rect x="164.849" y="365.87" style="fill:#474F59;" width="105.639" height="20.82"/>
<rect x="53.5" y="285.18" style="fill:#FFFFFF;" width="206.139" height="35.17"/>
<rect x="77.06" y="285.18" style="fill:#F77B55;" width="159.029" height="35.17"/>
<polygon style="fill:#F9A490;" points="236.081,285.169 236.081,320.349 116.173,320.349 141.377,285.169 "/>
<g>
	<rect x="102.399" y="304.69" style="fill:#FFFFFF;" width="108.339" height="4.697"/>
	<rect x="102.399" y="296.14" style="fill:#FFFFFF;" width="54.17" height="4.697"/>
</g>
<rect x="42.651" y="359.34" style="fill:#76D0DE;" width="227.839" height="27.351"/>
<polygon style="fill:#9CDFEA;" points="270.499,359.327 270.499,386.677 68.674,386.677 88.261,359.327 "/>
<g>
	<rect x="81.7" y="359.34" style="fill:#FFFFFF;" width="19.552" height="27.351"/>
	<rect x="68.69" y="359.34" style="fill:#FFFFFF;" width="6.524" height="27.351"/>
	<rect x="211.889" y="359.34" style="fill:#FFFFFF;" width="19.545" height="27.351"/>
	<rect x="237.929" y="359.34" style="fill:#FFFFFF;" width="6.524" height="27.351"/>
</g>
<path style="fill:#353F49;" d="M251.553,322.829c-1.652-1.655-3.832-2.487-6.012-2.487H59.095v4.961h186.446
	c0.941,0,1.833,0.367,2.497,1.037c0.677,0.671,1.037,1.562,1.037,2.504v21.98c0,0.948-0.36,1.843-1.037,2.51
	c-0.664,0.664-1.556,1.034-2.497,1.034H59.095v4.968h186.446c2.18,0,4.36-0.832,6.012-2.491c1.662-1.668,2.497-3.845,2.497-6.018
	v-21.98C254.05,326.671,253.214,324.497,251.553,322.829z"/>
<path style="fill:#6D7A89;" d="M254.05,328.838v21.999c0,2.18-0.826,4.327-2.51,6.012c-1.652,1.652-3.832,2.477-6.012,2.477H88.261
	l3.534-4.955h153.731c0.958,0,1.85-0.363,2.51-1.027c0.661-0.694,1.024-1.582,1.024-2.51v-21.999c0-0.925-0.363-1.817-1.024-2.51
	c-0.661-0.661-1.553-1.024-2.51-1.024H112.639l3.534-4.955h129.353c2.18,0,4.36,0.826,6.012,2.477
	C253.224,324.511,254.05,326.658,254.05,328.838z"/>
<path style="fill:#FFFFFF;" d="M64.056,354.368v-29.065h181.485c0.941,0,1.833,0.367,2.497,1.037
	c0.677,0.671,1.037,1.562,1.037,2.504v21.98c0,0.948-0.36,1.843-1.037,2.51c-0.664,0.664-1.556,1.034-2.497,1.034H64.056
	L64.056,354.368z"/>
<g>
	<rect x="156.569" y="343.6" style="fill:#CCCBCA;" width="92.499" height="1.629"/>
	<path style="fill:#CCCBCA;" d="M156.572,326.935h91.941c-0.136-0.211-0.292-0.412-0.476-0.595
		c-0.656-0.659-1.535-1.025-2.464-1.034h-89.002v1.629H156.572z"/>
	<rect x="156.569" y="331.4" style="fill:#CCCBCA;" width="92.499" height="1.635"/>
	<rect x="156.569" y="340.55" style="fill:#CCCBCA;" width="92.499" height="1.628"/>
	<path style="fill:#CCCBCA;" d="M156.572,329.984h92.503v-1.14c0-0.165-0.025-0.325-0.047-0.486h-92.456V329.984z"/>
	<rect x="156.569" y="337.5" style="fill:#CCCBCA;" width="92.499" height="1.628"/>
	<rect x="156.569" y="346.65" style="fill:#CCCBCA;" width="92.499" height="1.628"/>
	<path style="fill:#CCCBCA;" d="M156.572,354.368h88.968c0.941,0,1.833-0.367,2.497-1.034c0.183-0.181,0.339-0.381,0.475-0.591
		h-91.94V354.368z"/>
	<rect x="156.569" y="334.45" style="fill:#CCCBCA;" width="92.499" height="1.638"/>
	<path style="fill:#CCCBCA;" d="M156.572,351.323h92.455c0.023-0.165,0.048-0.33,0.048-0.499v-1.13h-92.503V351.323z"/>
</g>
<path style="fill:#FFFFFF;" d="M156.572,325.303v0.003h89.002c-0.011,0-0.022-0.003-0.034-0.003H156.572z"/>
<g>
	<path style="fill:#F2F2F2;" d="M156.572,328.359h92.456c-0.069-0.508-0.237-0.993-0.515-1.424h-91.941V328.359z"/>
	<rect x="156.569" y="329.98" style="fill:#F2F2F2;" width="92.499" height="1.417"/>
	<rect x="156.569" y="333.04" style="fill:#F2F2F2;" width="92.499" height="1.41"/>
	<rect x="156.569" y="336.08" style="fill:#F2F2F2;" width="92.499" height="1.414"/>
	<rect x="156.569" y="339.13" style="fill:#F2F2F2;" width="92.499" height="1.424"/>
	<rect x="156.569" y="342.18" style="fill:#F2F2F2;" width="92.499" height="1.417"/>
	<rect x="156.569" y="345.23" style="fill:#F2F2F2;" width="92.499" height="1.424"/>
	<rect x="156.569" y="348.28" style="fill:#F2F2F2;" width="92.499" height="1.417"/>
	<path style="fill:#F2F2F2;" d="M156.572,352.743h91.94c0.277-0.428,0.445-0.912,0.515-1.42h-92.455V352.743z"/>
</g>
<polygon style="fill:#F9A490;" points="226.442,346.645 214.451,346.645 214.451,373.653 220.44,367.661 226.442,373.653 "/>
<g>
	
		<rect x="442.656" y="210.824" transform="matrix(0.7929 0.6094 -0.6094 0.7929 273.3476 -211.4892)" style="fill:#474F59;" width="10.263" height="171.084"/>
	
		<rect x="440.651" y="82.521" transform="matrix(0.7738 -0.6335 0.6335 0.7738 -5.605 320.4149)" style="fill:#474F59;" width="10.277" height="171.067"/>
</g>
<g>
	<path style="fill:#232E38;" d="M483.662,230.792c-0.344,7.782,5.698,14.379,13.484,14.719c7.769,0.344,14.372-5.695,14.713-13.474
		c0.344-7.782-5.698-14.379-13.474-14.716C490.605,216.978,484.005,223.01,483.662,230.792z"/>
	<path style="fill:#232E38;" d="M283.58,386.687h149.678v-8.555c0-4.377-1.671-8.75-5.008-12.096
		c-3.343-3.34-7.716-5.008-12.096-5.008H300.681c-4.373,0-8.754,1.668-12.096,5.008c-3.336,3.346-5.008,7.72-5.008,12.096v8.555
		H283.58z"/>
</g>
<path style="fill:#606F7D;" d="M385.749,361.044v25.633H283.58v-8.555c0-4.357,1.688-8.75,5.024-12.09
	c3.336-3.336,7.697-4.988,12.09-4.988H385.749z"/>
<path style="fill:#232E38;" d="M389.022,84.522c7.37,2.534,11.304,10.544,8.77,17.927c-2.534,7.373-10.551,11.304-17.927,8.777
	l-34.99-11.985l9.14-26.7L389.022,84.522z"/>
<path style="fill:#FFFFFF;" d="M341.69,174.446c-5.028,14.663-20.989,22.482-35.642,17.461
	c-14.686-5.024-22.492-20.975-17.471-35.639c5.037-14.666,20.989-22.495,35.645-17.464
	C338.909,143.822,346.708,159.776,341.69,174.446z"/>
<polygon style="fill:#232E38;" points="244.507,141.169 385.762,189.545 369.708,110.648 305.54,88.668 "/>
<rect x="309.179" y="66.858" transform="matrix(-0.9461 -0.324 0.324 -0.9461 640.5601 274.0716)" style="fill:#474F59;" width="67.83" height="33.712"/>
<polygon style="fill:#232E38;" points="335.104,53.106 368.149,64.426 365.077,73.434 332.028,62.114 "/>
<polygon style="fill:#F2F2F2;" points="42.651,412.654 0,399.675 42.651,386.687 "/>
<polygon style="fill:#CCCBCA;" points="0,399.675 42.651,412.654 42.651,404.492 "/>
<rect x="42.651" y="386.69" style="fill:#F77B55;" width="426.688" height="25.963"/>
<rect x="42.651" y="404.49" style="fill:#EE643C;" width="426.688" height="8.162"/>
<polygon style="fill:#353F49;" points="16.691,404.749 0,399.675 16.691,394.562 "/>
<polygon style="fill:#232E38;" points="16.691,404.749 0,399.675 16.691,401.555 "/>
<rect x="469.347" y="386.69" style="fill:#F2F2F2;" width="15.06" height="25.963"/>
<rect x="469.347" y="404.49" style="fill:#CCCBCA;" width="15.06" height="8.162"/>
<path style="fill:#474F59;" d="M499.009,412.654c3.326,0,6.656-1.268,9.186-3.799c2.54-2.543,3.799-5.857,3.799-9.18l0,0
	c0-3.323-1.262-6.643-3.799-9.173c-2.534-2.543-5.86-3.809-9.186-3.809h-14.61v25.963h14.61V412.654z"/>
<path style="fill:#232E38;" d="M508.198,390.499c-1.467-1.473-3.237-2.471-5.07-3.092c0.429,1.335,0.704,2.709,0.704,4.103
	c0,3.316-1.268,6.639-3.792,9.176c-2.54,2.54-5.857,3.802-9.193,3.802h-6.441v8.162h14.61c3.326,0,6.656-1.268,9.186-3.799
	c2.54-2.543,3.799-5.857,3.799-9.18C512.001,396.348,510.735,393.029,508.198,390.499z"/>
<g>
</g>
<g>
</g>
<g>
</g>
<g>
</g>
<g>
</g>
<g>
</g>
<g>
</g>
<g>
</g>
<g>
</g>
<g>
</g>
<g>
</g>
<g>
</g>
<g>
</g>
<g>
</g>
<g>
</g>
</svg>
