<?xml version="1.0" encoding="iso-8859-1"?>
<!-- Generator: Adobe Illustrator 19.0.0, SVG Export Plug-In . SVG Version: 6.00 Build 0)  -->
<svg version="1.1" id="Layer_1" xmlns="http://www.w3.org/2000/svg" xmlns:xlink="http://www.w3.org/1999/xlink" x="0px" y="0px"
	 viewBox="0 0 482.236 482.236" style="enable-background:new 0 0 482.236 482.236;" xml:space="preserve">
<polygon style="fill:#FFF59D;" points="469.722,306.613 398.517,5.09 12.514,96.241 103.665,482.236 405.188,411.038 "/>
<polygon style="fill:#FFEE58;" points="469.662,306.492 406.475,408.734 386.944,326.024 "/>
<g>
	<path style="fill:#FBC02D;" d="M343.785,179.245c0.971,4.021-1.528,8.109-5.549,9.08l-219.603,52.887
		c-4.021,0.964-8.109-1.536-9.088-5.557l0,0c-0.964-4.021,1.536-8.109,5.564-9.08l219.603-52.894
		C338.733,172.717,342.822,175.209,343.785,179.245L343.785,179.245z"/>
	<path style="fill:#FBC02D;" d="M357.896,237.801c0.964,4.028-1.536,8.117-5.557,9.096l-219.603,52.879
		c-4.021,0.971-8.109-1.544-9.08-5.557l0,0c-0.971-4.028,1.528-8.117,5.557-9.08l219.603-52.887
		C352.828,231.266,356.924,233.773,357.896,237.801L357.896,237.801z"/>
	<path style="fill:#FBC02D;" d="M313.434,310.46c0.979,4.043-1.521,8.117-5.549,9.103l-161.047,38.769
		c-4.021,0.971-8.109-1.536-9.08-5.549l0,0c-0.971-4.028,1.528-8.117,5.557-9.088l161.039-38.776
		C308.382,303.94,312.471,306.44,313.434,310.46L313.434,310.46z"/>
</g>
<path style="fill:#969696;" d="M224.098,90.353c-5.278,0-10.338-0.964-15.059-2.628v62.863c0,8.312,6.746,15.059,15.059,15.059
	c8.32,0,15.059-6.746,15.059-15.059V87.725C234.443,89.389,229.391,90.353,224.098,90.353z"/>
<circle style="fill:#D32F2F;" cx="224.09" cy="45.176" r="45.176"/>
<path style="fill:#EF5350;" d="M224.105,0c-24.945,0-45.176,20.224-45.176,45.176c0,11.264,4.156,21.557,10.978,29.47l63.669-63.669
	C245.655,4.149,235.377,0,224.105,0z"/>
<g>
</g>
<g>
</g>
<g>
</g>
<g>
</g>
<g>
</g>
<g>
</g>
<g>
</g>
<g>
</g>
<g>
</g>
<g>
</g>
<g>
</g>
<g>
</g>
<g>
</g>
<g>
</g>
<g>
</g>
</svg>
