<?xml version="1.0" encoding="UTF-8" ?>
<!DOCTYPE svg PUBLIC "-//W3C//DTD SVG 1.1//EN" "http://www.w3.org/Graphics/SVG/1.1/DTD/svg11.dtd">
<svg width="749pt" height="146pt" viewBox="0 0 749 146" version="1.1" xmlns="http://www.w3.org/2000/svg">
<path fill="#ffd740" opacity="1.00" d=" M 402.25 18.04 C 406.54 15.46 410.83 12.89 415.12 10.32 C 415.13 19.13 415.12 27.94 415.12 36.75 C 419.46 36.75 423.79 36.75 428.12 36.75 C 428.12 40.08 428.12 43.42 428.12 46.75 C 423.79 46.75 419.46 46.75 415.13 46.75 C 415.24 63.19 414.88 79.65 415.30 96.08 C 415.71 102.46 423.53 101.88 428.08 101.06 C 428.68 104.84 429.31 108.61 429.93 112.39 C 422.45 113.70 413.60 114.84 407.19 109.84 C 402.52 106.34 402.58 100.02 402.31 94.75 C 402.17 78.75 402.29 62.75 402.25 46.75 C 399.08 46.75 395.91 46.75 392.75 46.75 C 392.75 43.42 392.75 40.08 392.75 36.75 C 395.91 36.75 399.08 36.75 402.25 36.75 C 402.25 30.51 402.25 24.28 402.25 18.04 Z" />
<path fill="#ffd740" opacity="1.00" d=" M 573.25 18.04 C 577.49 15.49 581.75 12.94 586.00 10.39 C 586.01 19.18 585.99 27.96 586.00 36.75 C 590.33 36.75 594.66 36.75 599.00 36.75 C 599.00 40.08 599.00 43.42 599.00 46.75 C 594.66 46.75 590.33 46.75 586.00 46.75 C 586.02 61.85 585.96 76.95 586.02 92.04 C 586.21 94.91 585.82 98.60 588.61 100.38 C 591.74 102.30 595.59 101.29 599.03 101.07 C 599.66 104.84 600.27 108.63 600.89 112.41 C 593.39 113.68 584.55 114.84 578.12 109.84 C 573.59 106.38 573.53 100.23 573.29 95.05 C 573.19 78.95 573.28 62.85 573.25 46.75 C 570.08 46.75 566.91 46.75 563.75 46.75 C 563.75 43.42 563.75 40.08 563.75 36.75 C 566.91 36.75 570.08 36.75 573.25 36.75 C 573.25 30.51 573.25 24.28 573.25 18.04 Z" />
<path fill="#ffd740" opacity="1.00" d=" M 34.66 39.69 C 41.95 35.39 50.72 34.97 58.97 35.13 C 65.85 35.37 73.12 36.03 79.04 39.88 C 82.83 42.20 85.95 45.85 86.83 50.29 C 88.70 58.76 87.82 67.49 87.98 76.08 C 88.01 88.28 86.47 101.29 92.37 112.51 C 85.73 112.48 79.09 112.51 72.45 112.49 C 71.54 109.76 70.69 107.03 69.89 104.27 C 64.63 109.20 58.10 113.02 50.84 113.89 C 42.67 114.91 33.49 113.54 27.39 107.55 C 19.56 100.21 18.76 86.79 25.40 78.43 C 28.62 74.23 33.58 71.91 38.54 70.45 C 48.34 67.53 58.69 66.73 68.32 63.16 C 68.35 59.13 68.16 53.83 63.88 51.91 C 59.27 50.08 53.98 49.96 49.18 51.10 C 44.97 52.12 42.72 56.17 41.21 59.88 C 35.13 58.76 29.05 57.71 22.98 56.57 C 24.96 49.92 28.58 43.39 34.66 39.69 M 48.26 81.24 C 44.76 82.26 41.41 85.06 41.14 88.90 C 40.53 94.18 44.82 99.17 49.96 99.91 C 56.66 100.91 64.21 97.41 67.06 91.12 C 68.77 86.35 68.10 81.16 68.26 76.19 C 61.69 78.25 54.81 79.14 48.26 81.24 Z" />
<path fill="#ffd740" opacity="1.00" d=" M 124.73 47.14 C 130.80 39.64 140.12 34.39 149.98 35.12 C 158.24 35.11 166.09 39.81 170.07 47.04 C 174.76 41.51 180.89 36.82 188.18 35.55 C 197.10 34.03 207.57 36.06 213.32 43.60 C 217.78 49.03 218.10 56.37 218.24 63.07 C 218.27 79.55 218.24 96.02 218.25 112.50 C 211.54 112.50 204.83 112.50 198.13 112.50 C 198.04 96.63 198.31 80.76 197.98 64.90 C 197.68 60.31 197.64 54.54 193.17 51.87 C 186.60 48.11 177.57 51.90 174.76 58.70 C 172.43 64.13 172.57 70.19 172.38 75.99 C 172.36 88.16 172.38 100.33 172.37 112.50 C 165.66 112.50 158.96 112.50 152.25 112.50 C 152.26 98.99 152.24 85.48 152.26 71.97 C 152.25 67.34 152.30 62.67 151.53 58.09 C 150.96 54.99 148.97 51.91 145.82 50.99 C 139.76 49.13 132.44 51.62 129.28 57.24 C 126.60 62.03 126.65 67.71 126.40 73.04 C 126.34 86.19 126.39 99.35 126.37 112.50 C 119.66 112.50 112.96 112.50 106.25 112.50 C 106.25 87.25 106.25 62.00 106.25 36.75 C 112.42 36.75 118.58 36.75 124.75 36.75 C 124.75 40.22 124.75 43.68 124.73 47.14 Z" />
<path fill="#ffd740" opacity="1.00" d=" M 269.75 36.92 C 279.91 33.04 292.20 35.36 300.03 42.98 C 306.86 49.04 310.39 58.00 311.31 66.94 C 312.23 76.07 311.70 85.58 308.24 94.17 C 304.60 103.14 296.95 110.71 287.48 113.23 C 281.14 114.81 274.16 114.57 268.24 111.65 C 264.14 109.64 260.78 106.46 257.59 103.24 C 257.66 115.91 257.61 128.58 257.62 141.25 C 250.87 141.25 244.13 141.25 237.38 141.25 C 237.37 106.42 237.38 71.58 237.38 36.75 C 243.67 36.75 249.96 36.75 256.25 36.75 C 256.25 40.43 256.28 44.11 256.19 47.78 C 259.57 42.97 264.23 39.02 269.75 36.92 M 269.38 51.67 C 263.52 53.54 259.43 59.06 258.23 64.95 C 256.81 71.91 257.04 79.29 259.14 86.10 C 261.25 92.87 267.67 98.63 275.04 98.29 C 281.03 98.45 286.56 94.34 288.83 88.92 C 290.94 83.91 291.25 78.37 291.20 73.01 C 291.02 66.64 289.79 59.63 284.91 55.09 C 280.92 51.09 274.68 49.92 269.38 51.67 Z" />
<path fill="#ffd740" opacity="1.00" d=" M 326.52 46.52 C 330.90 39.09 339.74 35.96 347.92 35.25 C 356.83 34.67 366.42 35.79 373.87 41.11 C 378.78 44.60 380.80 50.63 381.89 56.30 C 377.71 56.90 373.52 57.43 369.35 58.03 C 368.49 54.03 366.55 50.00 362.83 47.95 C 357.43 44.95 350.85 45.28 344.96 46.36 C 340.43 47.18 335.74 50.94 336.12 55.94 C 336.33 59.95 340.05 62.58 343.58 63.63 C 353.30 66.67 363.35 68.66 372.84 72.42 C 378.42 74.61 383.12 79.48 384.23 85.48 C 386.05 93.49 382.81 102.24 376.40 107.31 C 369.60 112.75 360.56 114.48 352.03 114.16 C 344.49 113.93 336.46 112.46 330.57 107.40 C 325.37 103.02 322.68 96.44 321.41 89.91 C 325.64 89.24 329.88 88.58 334.12 87.92 C 335.00 92.56 336.87 97.31 340.88 100.12 C 346.67 104.16 354.33 104.22 361.02 102.91 C 366.56 101.83 371.90 96.99 371.40 90.98 C 371.36 87.36 368.38 84.61 365.13 83.57 C 354.51 79.71 342.92 78.53 332.83 73.23 C 323.61 68.21 320.91 55.17 326.52 46.52 Z" />
<path fill="#ffd740" opacity="1.00" d=" M 449.00 40.95 C 458.17 35.15 469.56 34.51 480.08 35.46 C 486.74 36.23 493.94 38.39 498.20 43.89 C 500.96 47.67 502.02 52.40 502.12 57.01 C 502.55 71.31 501.82 85.62 502.68 99.90 C 502.82 104.33 504.25 108.59 506.25 112.51 C 501.75 112.49 497.25 112.50 492.76 112.50 C 491.50 109.54 490.66 106.42 490.20 103.24 C 483.90 108.58 476.40 112.86 468.08 113.80 C 459.47 114.83 449.71 114.10 442.93 108.09 C 435.04 101.29 434.03 88.38 440.17 80.12 C 444.75 73.73 452.63 70.74 460.17 69.70 C 469.92 68.30 479.83 67.47 489.28 64.48 C 489.25 59.82 489.54 54.48 486.28 50.72 C 482.34 46.68 476.36 45.73 470.96 45.72 C 466.44 45.75 461.62 46.13 457.74 48.68 C 453.93 51.31 452.28 55.86 450.98 60.09 C 446.77 59.52 442.56 58.97 438.36 58.36 C 439.92 51.65 442.94 44.73 449.00 40.95 M 458.15 81.42 C 451.68 83.07 448.03 90.86 450.94 96.88 C 453.13 101.86 458.82 104.09 463.97 104.13 C 472.35 104.63 481.44 101.28 486.07 93.96 C 489.69 88.19 489.11 81.07 489.28 74.55 C 479.28 78.46 468.40 78.59 458.15 81.42 Z" />
<path fill="#ffd740" opacity="1.00" d=" M 544.91 35.99 C 551.13 33.75 557.85 36.00 563.31 39.15 C 561.83 43.11 560.35 47.06 558.89 51.03 C 555.81 49.52 552.50 48.18 549.00 48.36 C 543.99 48.38 539.36 51.79 537.54 56.39 C 535.37 61.98 534.77 68.05 534.86 74.01 C 534.89 86.84 534.87 99.67 534.87 112.50 C 530.54 112.50 526.21 112.50 521.88 112.50 C 521.87 87.25 521.87 62.00 521.88 36.75 C 525.75 36.75 529.62 36.75 533.50 36.75 C 533.49 40.59 533.50 44.44 533.48 48.28 C 536.34 43.48 539.35 38.02 544.91 35.99 Z" />
<path fill="#ffd740" opacity="1.00" d=" M 616.41 46.45 C 629.25 31.35 655.84 31.06 668.61 46.39 C 676.09 54.95 677.83 66.88 677.38 77.87 C 658.42 77.88 639.47 77.86 620.52 77.88 C 621.04 84.79 622.77 92.10 627.83 97.17 C 634.38 104.15 645.80 105.66 654.09 101.02 C 658.96 98.28 661.75 93.16 663.74 88.13 C 668.17 88.67 672.61 89.21 677.04 89.77 C 675.04 96.90 671.12 103.68 665.00 108.01 C 656.97 113.88 646.45 114.97 636.84 113.74 C 628.22 112.65 619.93 108.27 614.72 101.23 C 608.63 93.24 606.97 82.81 607.28 73.00 C 607.58 63.54 609.99 53.67 616.41 46.45 M 628.28 51.28 C 623.77 55.37 621.74 61.43 621.20 67.36 C 635.43 67.38 649.66 67.40 663.89 67.35 C 663.22 60.97 661.35 54.12 655.98 50.09 C 648.16 43.63 635.54 44.23 628.28 51.28 Z" />
<path fill="#ffd740" opacity="1.00" d=" M 715.92 35.97 C 722.12 33.76 728.82 36.01 734.28 39.14 C 732.80 43.11 731.30 47.06 729.86 51.03 C 726.77 49.56 723.49 48.17 720.00 48.35 C 714.97 48.37 710.28 51.79 708.48 56.45 C 706.06 62.66 705.70 69.44 705.74 76.04 C 705.75 88.19 705.75 100.35 705.74 112.50 C 701.45 112.49 697.16 112.50 692.88 112.50 C 692.87 87.25 692.87 62.00 692.88 36.75 C 696.75 36.75 700.62 36.75 704.50 36.75 C 704.49 40.57 704.50 44.39 704.48 48.20 C 707.36 43.43 710.35 37.98 715.92 35.97 Z" />
</svg>
