<?xml version="1.0" encoding="UTF-8" ?>
<!DOCTYPE svg PUBLIC "-//W3C//DTD SVG 1.1//EN" "http://www.w3.org/Graphics/SVG/1.1/DTD/svg11.dtd">
<svg width="904pt" height="250pt" viewBox="0 0 904 250" version="1.1" xmlns="http://www.w3.org/2000/svg">
<path fill="#ecba16" opacity="1.00" d=" M 50.79 109.81 C 62.84 85.90 74.68 61.88 86.76 37.98 C 102.77 38.05 118.79 37.94 134.80 38.04 C 121.95 57.83 109.75 78.05 96.68 97.69 C 110.17 98.04 123.67 97.71 137.17 97.86 C 136.48 100.32 134.45 102.00 132.93 103.94 C 104.41 137.80 75.92 171.67 47.42 205.53 C 45.41 207.71 43.81 210.24 41.55 212.18 C 43.31 210.07 43.80 207.34 44.81 204.85 C 45.72 202.97 46.42 201.00 47.32 199.12 C 48.21 196.75 49.24 194.44 50.26 192.13 C 59.28 170.83 68.03 149.40 77.32 128.23 C 65.56 127.80 53.78 128.19 42.01 128.04 C 42.89 125.14 44.55 122.57 45.79 119.81 C 46.50 118.51 47.17 117.17 47.78 115.82 C 48.84 113.84 49.84 111.84 50.79 109.81 Z" />
<path fill="#ecba16" opacity="1.00" d=" M 522.13 82.85 C 526.37 80.27 530.63 77.72 534.87 75.14 C 534.87 83.97 534.87 92.80 534.87 101.63 C 539.20 101.63 543.53 101.63 547.86 101.63 C 547.87 105.00 547.87 108.37 547.87 111.75 C 543.54 111.75 539.21 111.74 534.88 111.75 C 534.89 126.82 534.83 141.90 534.90 156.97 C 535.12 159.90 534.60 163.64 537.41 165.54 C 540.54 167.53 544.44 166.54 547.90 166.25 C 548.50 170.05 549.13 173.85 549.73 177.65 C 542.25 178.96 533.38 180.11 527.00 175.04 C 522.40 171.54 522.46 165.28 522.19 160.07 C 522.04 143.96 522.17 127.86 522.12 111.75 C 518.95 111.75 515.79 111.75 512.63 111.74 C 512.63 108.37 512.63 105.00 512.63 101.63 C 515.81 101.64 518.99 101.69 522.17 101.53 C 522.08 95.30 522.15 89.07 522.13 82.85 Z" />
<path fill="#ecba16" opacity="1.00" d=" M 692.75 82.85 C 696.99 80.27 701.25 77.72 705.50 75.14 C 705.50 83.97 705.50 92.80 705.50 101.62 C 709.83 101.64 714.16 101.63 718.50 101.63 C 718.50 105.00 718.50 108.38 718.48 111.75 C 714.15 111.74 709.83 111.75 705.50 111.75 C 705.51 126.83 705.46 141.90 705.53 156.98 C 705.75 159.80 705.23 163.33 707.75 165.32 C 710.85 167.62 714.98 166.53 718.51 166.25 C 719.13 170.05 719.75 173.84 720.36 177.64 C 712.94 178.97 704.21 180.07 697.81 175.19 C 693.02 171.68 693.06 165.24 692.81 159.90 C 692.64 143.85 692.87 127.78 692.69 111.73 C 689.54 111.75 686.39 111.75 683.24 111.75 C 683.18 109.18 683.93 106.30 681.98 104.23 C 682.06 108.38 679.56 112.07 678.46 116.00 C 674.93 114.21 670.98 112.76 666.96 113.43 C 662.31 114.10 658.38 117.65 656.88 122.05 C 654.11 129.71 654.36 137.98 654.37 146.00 C 654.37 156.58 654.37 167.16 654.37 177.75 C 650.07 177.74 645.78 177.76 641.50 177.73 C 641.51 152.37 641.49 127.00 641.50 101.63 C 645.37 101.63 649.24 101.63 653.12 101.63 C 653.12 105.48 653.13 109.33 653.12 113.18 C 656.02 108.32 659.07 102.71 664.78 100.77 C 671.23 98.59 678.10 101.12 683.59 104.59 C 683.49 103.85 683.28 102.37 683.17 101.63 C 686.36 101.63 689.55 101.63 692.74 101.64 C 692.76 95.37 692.74 89.11 692.75 82.85 Z" />
<path fill="#ecba16" opacity="1.00" d=" M 156.71 103.77 C 164.82 99.74 174.19 99.72 183.04 100.18 C 190.52 100.59 198.51 102.54 203.75 108.27 C 207.48 112.20 207.98 117.89 208.38 123.02 C 208.88 136.01 207.91 149.03 208.61 162.02 C 208.84 167.52 210.53 172.82 212.88 177.76 C 206.26 177.73 199.63 177.75 193.01 177.75 C 192.05 175.05 191.22 172.30 190.47 169.53 C 185.29 174.22 179.08 178.10 172.04 179.05 C 163.32 180.39 153.32 178.72 147.15 171.92 C 138.31 162.56 140.08 145.07 151.61 138.66 C 163.12 132.54 176.67 132.85 188.73 128.24 C 189.03 124.13 188.64 118.72 184.29 116.81 C 179.56 115.04 174.15 114.84 169.30 116.21 C 165.30 117.37 163.27 121.30 161.82 124.87 C 155.75 123.77 149.69 122.69 143.63 121.57 C 145.65 114.35 149.84 107.28 156.71 103.77 M 168.35 146.52 C 165.02 147.56 162.00 150.39 161.75 154.01 C 161.11 159.10 165.06 164.02 169.99 165.00 C 175.87 166.17 182.25 163.63 186.01 159.02 C 189.86 153.95 188.47 147.18 188.75 141.26 C 182.06 143.43 175.00 144.24 168.35 146.52 Z" />
<path fill="#ecba16" opacity="1.00" d=" M 245.22 112.03 C 251.19 104.62 260.30 99.37 270.02 99.99 C 278.40 99.91 286.43 104.63 290.40 112.01 C 295.15 106.30 301.49 101.50 308.99 100.35 C 317.95 98.94 328.44 101.22 333.93 109.01 C 338.28 114.67 338.31 122.14 338.49 128.95 C 338.51 145.21 338.50 161.48 338.49 177.75 C 331.79 177.75 325.08 177.75 318.38 177.74 C 318.35 162.50 318.43 147.26 318.34 132.02 C 318.04 127.66 318.33 122.86 315.87 119.05 C 311.81 113.73 303.38 114.60 298.76 118.72 C 293.50 123.18 293.10 130.63 292.80 137.01 C 292.67 150.59 292.79 164.17 292.74 177.75 C 286.04 177.74 279.33 177.76 272.62 177.73 C 272.59 162.03 272.72 146.32 272.56 130.61 C 272.29 125.84 272.51 119.92 268.12 116.86 C 261.57 113.21 252.25 116.37 249.17 123.22 C 246.80 128.48 247.01 134.42 246.78 140.07 C 246.70 152.62 246.77 165.18 246.75 177.75 C 240.09 177.76 233.43 177.72 226.78 177.77 C 226.72 152.39 226.77 127.01 226.75 101.63 C 232.92 101.63 239.08 101.63 245.24 101.63 C 245.25 105.10 245.26 108.56 245.22 112.03 Z" />
<path fill="#ecba16" opacity="1.00" d=" M 376.33 112.82 C 381.29 105.30 389.88 100.13 398.96 99.99 C 406.96 99.57 414.99 102.73 420.65 108.38 C 427.14 114.50 430.47 123.28 431.37 132.01 C 432.21 140.61 431.81 149.51 428.92 157.72 C 426.44 164.86 421.55 171.16 415.14 175.19 C 408.27 179.53 399.48 180.61 391.72 178.26 C 386.15 176.55 381.73 172.53 377.74 168.46 C 377.75 181.18 377.75 193.90 377.74 206.62 C 371.04 206.62 364.33 206.63 357.63 206.62 C 357.64 171.62 357.62 136.63 357.63 101.63 C 363.88 101.63 370.12 101.63 376.37 101.63 C 376.36 105.36 376.39 109.09 376.33 112.82 M 389.46 116.66 C 383.68 118.55 379.65 123.97 378.43 129.79 C 376.97 136.69 377.21 143.99 379.14 150.77 C 381.03 157.41 386.94 163.19 394.07 163.49 C 400.01 163.99 405.82 160.42 408.42 155.14 C 411.17 149.53 411.39 143.10 411.24 136.98 C 411.00 130.91 409.61 124.32 404.97 120.02 C 401.00 116.00 394.73 114.90 389.46 116.66 Z" />
<path fill="#ecba16" opacity="1.00" d=" M 446.88 110.92 C 451.36 103.81 459.96 100.82 467.97 100.12 C 476.65 99.56 485.94 100.65 493.29 105.65 C 498.51 109.12 500.73 115.40 501.78 121.31 C 497.60 121.87 493.43 122.43 489.26 123.02 C 488.53 119.52 487.07 115.97 484.09 113.80 C 480.11 110.70 474.79 110.41 469.94 110.64 C 465.95 110.88 461.51 111.56 458.64 114.63 C 456.31 116.77 455.37 120.36 456.70 123.28 C 457.90 126.08 460.73 127.71 463.50 128.63 C 473.17 131.68 483.18 133.68 492.62 137.43 C 498.06 139.54 502.66 144.13 503.98 149.91 C 506.26 158.54 502.54 168.20 495.31 173.33 C 487.80 178.75 478.11 180.04 469.08 179.27 C 462.01 178.72 454.56 176.77 449.46 171.55 C 444.93 167.20 442.64 161.12 441.45 155.08 C 445.68 154.38 449.92 153.72 454.17 153.06 C 454.98 158.14 457.32 163.34 461.93 166.03 C 467.72 169.36 474.87 169.42 481.25 168.06 C 486.76 166.90 491.86 161.93 491.36 156.00 C 491.18 152.56 488.45 149.86 485.33 148.78 C 474.65 144.79 462.92 143.68 452.78 138.25 C 443.39 133.05 440.90 119.59 446.88 110.92 Z" />
<path fill="#ecba16" opacity="1.00" d=" M 568.84 105.82 C 576.86 100.68 586.75 99.66 596.06 100.05 C 602.91 100.35 610.13 101.83 615.55 106.29 C 620.01 110.15 621.69 116.26 621.80 121.98 C 622.06 136.35 621.57 150.75 622.35 165.12 C 622.51 169.56 623.90 173.85 625.94 177.78 C 621.44 177.72 616.94 177.77 612.44 177.73 C 611.17 174.75 610.35 171.61 609.91 168.41 C 603.45 174.04 595.57 178.38 586.92 179.18 C 578.36 180.08 568.61 179.08 562.16 172.79 C 554.68 165.74 554.00 153.08 560.15 144.97 C 564.78 138.67 572.60 135.74 580.11 134.73 C 589.73 133.35 599.49 132.47 608.83 129.58 C 609.13 124.73 609.23 119.08 605.64 115.32 C 601.49 111.41 595.45 110.59 589.99 110.62 C 585.51 110.80 580.65 111.20 576.97 114.03 C 573.52 116.74 571.97 121.04 570.76 125.10 C 566.58 124.54 562.39 123.94 558.21 123.38 C 559.64 116.59 562.78 109.67 568.84 105.82 M 579.28 146.10 C 574.50 147.10 570.24 150.97 569.81 155.99 C 568.96 161.59 572.99 167.10 578.37 168.49 C 588.02 171.09 599.75 168.13 605.50 159.54 C 609.41 153.69 608.84 146.32 608.88 139.62 C 599.39 143.35 589.10 143.78 579.28 146.10 Z" />
<path fill="#ecba16" opacity="1.00" d=" M 735.67 111.61 C 747.87 96.85 773.10 95.86 786.41 109.61 C 795.10 118.27 797.21 131.21 796.75 142.99 C 777.82 143.02 758.89 142.97 739.96 143.02 C 740.50 149.78 742.10 156.93 746.93 162.01 C 753.52 169.42 765.52 171.06 773.94 165.93 C 778.54 163.09 781.17 158.14 783.09 153.27 C 787.51 153.81 791.94 154.37 796.37 154.91 C 794.34 162.36 790.11 169.39 783.64 173.76 C 775.22 179.50 764.39 180.38 754.57 178.73 C 745.67 177.25 737.45 171.98 732.68 164.28 C 727.60 156.21 726.38 146.37 726.80 137.01 C 727.20 127.96 729.64 118.59 735.67 111.61 M 748.49 115.52 C 743.53 119.65 741.15 126.07 740.67 132.37 C 754.85 132.38 769.03 132.38 783.21 132.37 C 782.62 126.12 780.82 119.46 775.73 115.34 C 768.24 108.81 755.93 109.01 748.49 115.52 Z" />
<path fill="#ecba16" opacity="1.00" d=" M 835.09 100.89 C 841.28 98.61 848.05 100.87 853.48 104.07 C 852.03 108.05 850.53 112.02 849.07 116.00 C 845.68 114.27 841.93 112.87 838.07 113.37 C 833.31 113.86 829.18 117.38 827.59 121.84 C 825.45 127.60 825.04 133.83 825.01 139.93 C 824.98 152.54 825.01 165.14 824.99 177.75 C 820.70 177.74 816.41 177.75 812.13 177.75 C 812.13 152.37 812.12 127.00 812.13 101.63 C 816.00 101.63 819.87 101.63 823.74 101.63 C 823.75 105.48 823.75 109.32 823.74 113.17 C 826.61 108.41 829.55 102.92 835.09 100.89 Z" />
</svg>
